<?xml version="1.0" encoding="UTF-8" standalone="no"?>
<!DOCTYPE svg PUBLIC "-//W3C//DTD SVG 20010904//EN"
              "http://www.w3.org/TR/2001/REC-SVG-20010904/DTD/svg10.dtd">

<svg xmlns="http://www.w3.org/2000/svg"
     width="3.6in" height="3.6in"
     viewBox="0 0 1080 1080">
  <path id="Selection"
        fill="none" stroke="black" stroke-width="1"
        d="M 382.00,270.42
           C 397.39,268.54 417.04,270.88 431.00,277.76
             435.78,280.11 442.34,283.22 445.02,288.01
             446.99,291.56 446.99,297.03 447.00,301.00
             447.00,301.00 447.00,364.00 447.00,364.00
             446.99,367.59 447.35,377.37 441.94,377.37
             438.86,377.37 435.07,373.05 433.00,371.00
             427.31,365.37 424.07,362.39 417.00,358.44
             409.39,354.18 401.74,351.81 393.00,352.01
             372.46,352.49 362.21,371.46 362.00,390.00
             361.64,422.30 382.23,437.48 404.00,457.17
             411.66,464.09 420.88,473.77 427.10,482.00
             452.40,515.47 456.47,556.45 456.00,597.00
             456.00,597.00 455.09,607.00 455.09,607.00
             452.38,646.53 442.61,691.64 403.00,710.22
             381.53,720.29 348.86,718.66 328.00,707.68
             321.37,704.20 310.18,697.31 307.70,690.00
             306.88,687.57 307.00,684.56 307.00,682.00
             307.00,682.00 307.00,607.00 307.00,607.00
             307.01,603.70 306.59,595.40 312.00,596.20
             315.62,596.74 322.95,608.62 326.09,612.00
             336.50,623.23 349.89,634.31 366.00,634.96
             370.00,635.12 373.17,634.71 377.00,633.56
             395.13,628.14 401.49,607.14 399.83,590.00
             398.87,580.06 395.66,570.57 390.55,562.00
             381.57,546.94 368.69,537.30 356.00,525.83
             345.24,516.10 335.41,505.39 327.81,493.00
             320.38,480.87 314.49,465.90 311.42,452.00
             308.60,439.22 306.02,421.00 306.00,408.00
             305.94,367.95 309.03,322.07 339.00,292.00
             345.42,285.56 350.64,280.82 359.00,276.89
             367.63,272.84 372.79,271.82 382.00,270.42 Z
           M 166.05,277.57
           C 166.05,277.57 198.00,277.00 198.00,277.00
             198.00,277.00 260.00,277.00 260.00,277.00
             265.91,277.00 283.52,275.30 286.83,280.39
             288.24,282.57 288.00,286.45 288.00,289.00
             288.00,289.00 288.00,350.00 288.00,350.00
             287.95,360.23 285.67,360.98 276.00,361.00
             276.00,361.00 234.00,361.00 234.00,361.00
             229.64,361.00 220.68,360.30 217.28,362.85
             213.61,365.60 214.01,370.92 214.00,375.00
             214.00,375.00 214.00,446.00 214.00,446.00
             214.02,457.38 215.24,459.98 227.00,460.00
             227.00,460.00 265.00,460.00 265.00,460.00
             268.78,460.00 276.71,459.31 279.57,461.74
             282.41,464.15 281.99,468.63 282.00,472.00
             282.00,472.00 282.00,532.00 282.00,532.00
             281.94,543.25 278.30,543.98 268.00,544.00
             268.00,544.00 232.00,544.00 232.00,544.00
             228.19,544.00 220.20,543.27 217.28,545.60
             213.68,548.46 214.01,553.88 214.00,558.00
             214.00,558.00 214.00,672.00 214.00,672.00
             214.00,672.00 214.00,699.00 214.00,699.00
             213.96,701.95 213.99,705.28 211.57,707.40
             208.87,709.77 199.65,709.99 196.00,710.00
             196.00,710.00 177.00,710.00 177.00,710.00
             165.36,709.86 161.02,709.64 161.00,697.00
             161.00,697.00 161.00,378.00 161.00,378.00
             161.00,378.00 161.00,303.00 161.00,303.00
             161.00,298.33 160.25,283.65 162.31,280.28
             163.45,278.42 164.26,278.37 166.05,277.57 Z
           M 471.11,277.74
           C 476.51,276.37 489.75,277.00 496.00,277.00
             496.00,277.00 542.00,277.00 542.00,277.00
             553.02,277.02 554.98,278.98 555.00,290.00
             555.00,290.00 555.00,344.00 555.00,344.00
             554.99,347.83 555.43,353.48 551.72,355.83
             548.51,357.86 543.18,356.02 539.56,360.28
             536.83,363.49 537.01,369.01 537.00,373.00
             537.00,373.00 537.00,614.00 537.00,614.00
             537.01,617.80 536.81,623.61 539.56,626.57
             542.57,629.81 546.65,628.39 549.96,629.74
             555.39,631.96 554.99,637.12 555.00,642.00
             555.00,642.00 555.00,690.00 555.00,690.00
             555.00,694.47 555.91,704.31 552.49,707.40
             549.99,709.66 539.55,709.99 536.00,710.00
             536.00,710.00 483.00,710.00 483.00,710.00
             471.96,709.87 467.02,709.86 467.00,698.00
             467.00,698.00 467.00,641.00 467.00,641.00
             467.00,638.07 466.65,633.96 468.74,631.65
             471.57,628.50 476.27,629.46 478.98,628.40
             484.27,626.34 483.99,621.73 484.00,617.00
             484.00,617.00 484.00,370.00 484.00,370.00
             483.99,366.91 484.30,362.85 482.26,360.30
             479.19,356.45 473.37,357.76 470.23,355.83
             466.52,353.54 467.01,348.77 467.00,345.00
             467.00,345.00 467.00,296.00 467.00,296.00
             467.00,289.84 465.22,281.48 471.11,277.74 Z
           M 745.06,277.74
           C 750.62,276.36 765.45,277.00 772.00,277.00
             772.00,277.00 823.00,277.00 823.00,277.00
             870.22,277.56 900.74,313.14 915.00,355.00
             925.07,384.56 929.68,415.90 931.04,447.00
             931.04,447.00 932.00,460.00 932.00,460.00
             932.00,460.00 932.00,485.00 932.00,485.00
             932.00,485.00 932.00,513.00 932.00,513.00
             932.00,513.00 931.09,525.00 931.09,525.00
             929.64,546.22 927.67,567.19 922.88,588.00
             913.25,629.87 892.40,684.92 850.00,703.13
             838.67,707.99 832.81,708.28 821.00,709.09
             821.00,709.09 809.00,710.00 809.00,710.00
             809.00,710.00 757.00,710.00 757.00,710.00
             753.42,709.95 744.31,709.65 742.17,706.57
             739.59,702.85 740.00,687.03 740.00,682.00
             740.00,682.00 740.00,621.00 740.00,621.00
             740.00,621.00 740.00,362.00 740.00,362.00
             740.00,362.00 740.00,294.00 740.00,294.00
             740.07,288.39 739.88,280.91 745.06,277.74 Z
           M 800.00,361.34
           C 793.98,363.16 794.04,365.17 794.00,371.00
             794.00,371.00 794.00,422.00 794.00,422.00
             794.00,422.00 794.00,615.00 794.00,615.00
             794.00,617.21 793.79,620.81 795.02,622.69
             798.08,627.35 810.22,625.87 815.00,625.28
             834.04,622.94 845.10,616.45 854.69,599.00
             867.56,575.58 873.15,549.46 875.09,523.00
             875.09,523.00 876.00,513.00 876.00,513.00
             876.00,513.00 877.00,492.00 877.00,492.00
             877.00,492.00 876.00,468.00 876.00,468.00
             875.93,453.40 872.45,434.23 868.87,420.00
             865.20,405.36 856.26,383.39 844.96,373.30
             832.85,362.49 815.75,359.49 800.00,361.34 Z
           M 634.00,392.15
           C 634.00,392.15 641.00,392.15 641.00,392.15
             641.00,392.15 646.00,392.15 646.00,392.15
             664.30,392.03 676.89,401.66 687.36,416.00
             702.16,436.26 709.21,467.33 712.15,492.00
             712.15,492.00 714.00,516.00 714.00,516.00
             714.00,516.00 715.00,531.00 715.00,531.00
             715.00,531.00 715.00,570.00 715.00,570.00
             714.99,573.41 715.24,577.90 713.15,580.77
             710.49,584.42 706.00,583.99 702.00,584.00
             702.00,584.00 664.00,584.00 664.00,584.00
             664.00,584.00 630.00,584.00 630.00,584.00
             627.01,584.00 622.84,583.69 620.43,585.74
             615.89,589.60 619.75,604.75 621.15,610.00
             626.04,628.33 635.53,644.80 657.00,643.96
             666.65,643.58 676.47,639.41 684.00,633.48
             687.04,631.10 692.75,624.65 695.98,623.88
             702.37,622.37 701.99,633.25 702.00,637.00
             702.00,637.00 702.00,681.00 702.00,681.00
             701.98,685.20 701.84,689.11 699.95,692.99
             697.61,697.80 691.45,702.42 687.00,705.30
             673.78,713.86 658.60,717.18 643.00,717.00
             604.51,716.55 584.88,680.59 575.58,648.00
             568.76,624.09 566.04,598.78 566.00,574.00
             566.00,574.00 565.01,559.00 565.01,559.00
             565.01,559.00 565.96,549.00 565.96,549.00
             565.96,549.00 565.96,533.00 565.96,533.00
             565.96,533.00 566.91,523.00 566.91,523.00
             568.57,499.34 572.16,475.30 580.58,453.00
             590.05,427.90 605.58,398.79 634.00,392.15 Z
           M 644.00,461.74
           C 640.55,461.97 638.01,462.43 635.18,464.65
             627.22,470.91 621.75,491.10 619.80,501.00
             618.97,505.23 616.13,516.19 620.31,518.98
             622.16,520.21 625.81,520.00 628.00,519.90
             628.00,519.90 655.00,519.90 655.00,519.90
             656.53,520.00 659.57,520.06 660.96,519.90
             668.39,517.71 665.19,507.59 664.99,502.00
             664.60,491.20 660.56,469.91 650.99,463.73
             648.56,462.17 646.75,462.01 644.00,461.74 Z" />
</svg>
